<?xml version="1.0" encoding="UTF-8"?>
<svg version="1.1" xmlns="http://www.w3.org/2000/svg" width="16" height="16">
<path d="M0 0 C5.28 0 10.56 0 16 0 C16 5.28 16 10.56 16 16 C14.35 16 12.7 16 11 16 C11 12.37 11 8.74 11 5 C9.02 5 7.04 5 5 5 C5 7.97 5 10.94 5 14 C6.65 14 8.3 14 10 14 C10 14.66 10 15.32 10 16 C7.69 16 5.38 16 3 16 C3 11.71 3 7.42 3 3 C4.629375 3.020625 6.25875 3.04125 7.9375 3.0625 C9.62499341 3.08386068 11.31391034 3.07205511 13 3 C13.33 2.67 13.66 2.34 14 2 C10.04 2 6.08 2 2 2 C2 6.62 2 11.24 2 16 C1.34 16 0.68 16 0 16 C0 10.72 0 5.44 0 0 Z " fill="#313131" transform="translate(0,0)"/>
<path d="M0 0 C1.32 0 2.64 0 4 0 C4 2.31 4 4.62 4 7 C2.68 7 1.36 7 0 7 C0 4.69 0 2.38 0 0 Z " fill="#E62F09" transform="translate(6,6)"/>
</svg>
