<svg xmlns="http://www.w3.org/2000/svg" width="148.843" height="43" viewBox="0 0 148.843 43"><defs><style>.a{fill:#272728;}.b{fill:#e6300b;}</style></defs><path class="a" d="M177.055,39.176l-.015-.032,5.86-9.514V29.6h-5.439V27.83h8.792l.015.032-5.86,9.509V37.4h5.722v1.77Z" transform="translate(-124.079 -19.472)"/><path class="a" d="M221.879,39.169h-2.118l-1.082-2.775h-4.887l-1.1,2.775H210.63l4.654-11.349h1.944Zm-7.444-4.406h3.6l-.661-1.708c-.389-1.018-.767-2.02-1.127-3.041h-.032c-.375,1.05-.734,2.023-1.127,3.041Z" transform="translate(-147.608 -19.465)"/><path class="a" d="M253.44,27.82H256.6a6.081,6.081,0,0,1,3.212.613,2.533,2.533,0,0,1,1.333,2.286,2.347,2.347,0,0,1-1.708,2.321v.029a2.615,2.615,0,0,1,2.162,2.713,2.973,2.973,0,0,1-1.489,2.654,6.515,6.515,0,0,1-3.51.723H253.44Zm3.76,4.828c1.1,0,1.958-.469,1.958-1.537a1.327,1.327,0,0,0-.7-1.239,3.88,3.88,0,0,0-1.973-.313h-1.05v3.088Zm-.5,4.781a4.175,4.175,0,0,0,2.256-.407,1.439,1.439,0,0,0,.658-1.286c0-1.1-.846-1.66-2.359-1.66h-1.832v3.353Z" transform="translate(-177.633 -19.465)"/><path class="a" d="M296.916,33.651a6.832,6.832,0,0,1-.814,3.887,4.593,4.593,0,0,1-3.964,1.8,4.5,4.5,0,0,1-3.949-1.834,6.644,6.644,0,0,1-.8-3.728V27.82h1.991v5.831a5.428,5.428,0,0,0,.436,2.681,2.511,2.511,0,0,0,2.4,1.18,2.451,2.451,0,0,0,2.321-1.144,5.394,5.394,0,0,0,.454-2.7V27.82h1.926Z" transform="translate(-201.416 -19.464)"/><path class="a" d="M327.66,27.82h3.15a7.965,7.965,0,0,1,4.389,1.035,5.334,5.334,0,0,1,2.359,4.607,5.384,5.384,0,0,1-2.064,4.424,7.893,7.893,0,0,1-4.919,1.271h-2.9Zm3.07,9.576a5.514,5.514,0,0,0,3.371-.814,4.012,4.012,0,0,0-.109-6.273,5.694,5.694,0,0,0-3.277-.72h-1.065V37.4Z" transform="translate(-229.635 -19.465)"/><path class="a" d="M365.49,33.086a5.845,5.845,0,1,1,5.845,5.846,5.846,5.846,0,0,1-5.845-5.846Zm9.7,0a3.858,3.858,0,1,0-3.855,4.029A3.875,3.875,0,0,0,375.19,33.086Z" transform="translate(-256.127 -19.058)"/><path class="a" d="M406.61,27.82h2.118l1.66,5.518c.295.988.59,2.02.861,2.994h.032c.265-.956.59-2.038.885-3.008l1.708-5.5h1.457l1.716,5.518c.345,1.112.613,1.991.885,2.994h.032c.265-.973.563-2.038.861-3.008l1.66-5.5h2.023l-3.5,11.349h-2.115l-1.5-4.86c-.295-.923-.563-1.849-.814-2.725h-.032c-.251.885-.516,1.77-.8,2.7l-1.522,4.89H410.1Z" transform="translate(-284.721 -19.465)"/><path class="a" d="M465.989,34.043,461.6,27.82h2.321l1.631,2.413c.5.737.988,1.46,1.427,2.132h.047c.439-.672.938-1.425,1.442-2.162l1.613-2.359h2.253l-4.341,6.194v5.132H466Z" transform="translate(-323.493 -19.465)"/><path class="a" d="M177,77.57h1.991v5.079h.029l4.468-5.079h2.4l-4.675,5.267,5.093,6.067H183.8l-4.766-5.754-.029.015V88.9h-2Z" transform="translate(-124.051 -54.274)"/><path class="a" d="M208.537,82.821a5.848,5.848,0,1,1,5.847,5.846,5.73,5.73,0,0,1-5.847-5.846Zm9.7,0a3.86,3.86,0,1,0-3.855,4.026A3.873,3.873,0,0,0,218.24,82.821Z" transform="translate(-146.137 -53.849)"/><path class="a" d="M253.175,85.741a6.586,6.586,0,0,0,3.539,1.18c1.127,0,1.944-.484,1.944-1.537,0-1.253-1.18-1.425-2.654-1.864-1.593-.493-3.094-1.212-3.094-3.232S254.447,77,256.732,77a7.025,7.025,0,0,1,3.371.826v2.006a6.645,6.645,0,0,0-3.386-1.062c-1.065,0-1.817.425-1.817,1.38,0,1.206,1.18,1.363,2.554,1.77,1.675.531,3.182,1.274,3.182,3.339,0,2.132-1.6,3.418-3.952,3.418a7.769,7.769,0,0,1-3.51-.864Z" transform="translate(-177.265 -53.87)"/><path class="a" d="M282.835,88.883l-.015-.029,5.86-9.514-.015-.029h-5.424V77.54h8.792l.018.032-5.863,9.511.018.032h5.719v1.77Z" transform="translate(-198.216 -54.253)"/><path class="a" d="M320.309,83.793,315.92,77.57h2.318l1.646,2.4c.5.737.988,1.457,1.427,2.132h.032c.437-.675.938-1.427,1.439-2.165l1.616-2.359h2.238L322.3,83.769V88.9h-1.991Z" transform="translate(-221.399 -54.274)"/><path class="a" d="M32.637,39.679V9.932H9.762V43H24.476V39.679l-11.44,0V13.249H29.36V43H42.432V0H0V43H3.274V3.318H39.158V39.679Z"/><rect class="b" width="6.521" height="16.248" transform="translate(17.955 18.381)"/></svg>