<svg xmlns="http://www.w3.org/2000/svg" width="235.377" height="67.999" viewBox="0 0 235.377 67.999">
  <g id="Group_207" data-name="Group 207" transform="translate(3355 -2484)">
    <path id="Path_8" data-name="Path 8" d="M177.063,45.772l-.023-.051,9.267-15.046v-.047h-8.6v-2.8h13.9l.023.051-9.267,15.037v.051h9.048v2.8Z" transform="translate(-3448.289 2469.387)" fill="#fff"/>
    <path id="Path_9" data-name="Path 9" d="M228.418,45.767H225.07l-1.712-4.389H215.63l-1.735,4.389H210.63l7.36-17.947h3.074ZM216.646,38.8h5.7L221.3,36.1c-.616-1.609-1.213-3.195-1.782-4.809h-.051c-.592,1.66-1.161,3.2-1.782,4.809Z" transform="translate(-3465.968 2469.392)" fill="#fff"/>
    <path id="Path_10" data-name="Path 10" d="M253.44,27.82h5c2.379,0,3.866.252,5.079.97a4.006,4.006,0,0,1,2.108,3.615,3.712,3.712,0,0,1-2.7,3.671v.047a4.136,4.136,0,0,1,3.419,4.291,4.7,4.7,0,0,1-2.355,4.2c-1.287.793-2.971,1.143-5.55,1.143h-5Zm5.947,7.635c1.735,0,3.1-.742,3.1-2.43a2.1,2.1,0,0,0-1.115-1.959,6.136,6.136,0,0,0-3.12-.494h-1.66v4.883Zm-.793,7.56a6.6,6.6,0,0,0,3.568-.644,2.276,2.276,0,0,0,1.04-2.033c0-1.735-1.339-2.626-3.731-2.626h-2.9v5.3Z" transform="translate(-3488.56 2469.392)" fill="#fff"/>
    <path id="Path_11" data-name="Path 11" d="M302.455,37.041c0,2.654-.27,4.636-1.287,6.147-1.241,1.833-3.493,2.85-6.268,2.85-2.878,0-5.056-1.091-6.245-2.9-.993-1.483-1.264-3.47-1.264-5.9V27.82h3.148v9.221a8.583,8.583,0,0,0,.69,4.24,3.97,3.97,0,0,0,3.792,1.866,3.876,3.876,0,0,0,3.671-1.81,8.529,8.529,0,0,0,.718-4.263V27.82h3.046Z" transform="translate(-3506.432 2469.394)" fill="#fff"/>
    <path id="Path_12" data-name="Path 12" d="M327.66,27.82h4.981a12.6,12.6,0,0,1,6.94,1.637,8.435,8.435,0,0,1,3.731,7.285,8.514,8.514,0,0,1-3.265,7c-1.866,1.4-4.333,2.01-7.78,2.01h-4.585Zm4.855,15.144c2.355,0,4.039-.345,5.331-1.287a5.932,5.932,0,0,0,2.3-4.911,5.891,5.891,0,0,0-2.477-5.009,9.005,9.005,0,0,0-5.182-1.138h-1.684V42.964Z" transform="translate(-3527.645 2469.392)" fill="#fff"/>
    <path id="Path_13" data-name="Path 13" d="M365.49,36.484a9.244,9.244,0,1,1,9.244,9.244,9.244,9.244,0,0,1-9.244-9.244Zm15.34,0a6.1,6.1,0,1,0-12.192,0,6.1,6.1,0,1,0,12.192,0Z" transform="translate(-3547.546 2469.699)" fill="#fff"/>
    <path id="Path_14" data-name="Path 14" d="M406.61,27.82h3.349l2.626,8.726c.466,1.562.933,3.195,1.362,4.734H414c.42-1.511.933-3.223,1.4-4.757l2.7-8.7h2.3l2.714,8.726c.546,1.758.97,3.148,1.4,4.734h.051c.42-1.539.891-3.223,1.362-4.757l2.626-8.7h3.2l-5.541,17.947h-3.344l-2.379-7.686c-.466-1.46-.891-2.924-1.287-4.31h-.051c-.4,1.4-.816,2.8-1.264,4.263l-2.407,7.733h-3.344Z" transform="translate(-3568.857 2469.392)" fill="#fff"/>
    <path id="Path_15" data-name="Path 15" d="M468.54,37.661,461.6,27.82h3.671l2.579,3.815c.8,1.166,1.562,2.309,2.257,3.372h.075c.695-1.063,1.483-2.253,2.281-3.419l2.551-3.731h3.563l-6.865,9.794v8.115h-3.148Z" transform="translate(-3598.2 2469.392)" fill="#fff"/>
    <path id="Path_16" data-name="Path 16" d="M177,77.57h3.148V85.6h.047l7.066-8.031h3.792L183.66,85.9l8.055,9.594H187.75l-7.537-9.1-.047.023v9.076H177Z" transform="translate(-3448.267 2443.27)" fill="#fff"/>
    <path id="Path_17" data-name="Path 17" d="M208.538,86.223a9.249,9.249,0,1,1,9.247,9.244,9.062,9.062,0,0,1-9.247-9.244Zm15.344,0a6.1,6.1,0,1,0-6.1,6.366A6.125,6.125,0,0,0,223.882,86.223Z" transform="translate(-3464.86 2443.593)" fill="#fff"/>
    <path id="Path_18" data-name="Path 18" d="M253.33,90.823a10.414,10.414,0,0,0,5.6,1.866c1.782,0,3.074-.765,3.074-2.43,0-1.982-1.866-2.253-4.2-2.948-2.519-.779-4.892-1.917-4.892-5.112s2.43-5.2,6.045-5.2a11.11,11.11,0,0,1,5.331,1.306v3.171a10.508,10.508,0,0,0-5.354-1.679c-1.684,0-2.873.672-2.873,2.183,0,1.908,1.866,2.155,4.039,2.8,2.649.84,5.032,2.015,5.032,5.28,0,3.372-2.533,5.406-6.25,5.406a12.285,12.285,0,0,1-5.55-1.367Z" transform="translate(-3488.286 2443.577)" fill="#fff"/>
    <path id="Path_19" data-name="Path 19" d="M282.843,95.478l-.023-.047,9.267-15.046-.023-.047h-8.577v-2.8h13.9l.028.051-9.272,15.041.028.051h9.043v2.8Z" transform="translate(-3504.028 2443.286)" fill="#fff"/>
    <path id="Path_20" data-name="Path 20" d="M322.86,87.411l-6.94-9.841h3.666l2.6,3.792c.793,1.166,1.562,2.3,2.257,3.372h.051c.69-1.068,1.483-2.257,2.276-3.423l2.556-3.731h3.54l-6.861,9.794v8.12H322.86Z" transform="translate(-3521.447 2443.27)" fill="#fff"/>
    <path id="Path_21" data-name="Path 21" d="M51.611,62.748V15.706H15.438V68H38.706V62.748l-18.091,0v-41.8H46.43V68H67.1V0H0V68H5.177V5.246H61.923v57.5Z" transform="translate(-3355 2484)" fill="#fff"/>
    <rect id="Rectangle_176" data-name="Rectangle 176" width="10.312" height="25.694" transform="translate(-3326.606 2513.068)" fill="#e6300b"/>
  </g>
</svg>
